# xmcd CD database file
#
# Track frame offsets:
#	150
#	16304
#	31070
#	41638
#	61669
#	78616
#	94814
#	109349
#	127004
#	142510
#
# Disc length: 2091 seconds
#
# Revision: 1
# Processed by: cddbd v1.5.2PL0 Copyright (c) Steve Scherf et al.
# Submitted via: CDex 1.70
#
DISCID=7808290a
DTITLE=Clay Self - Me and The Boys
DYEAR=2010
DGENRE=Country
TTITLE0=Me and The Boys
TTITLE1=Could It Be
TTITLE2=Honky Tonk Etiquette
TTITLE3=Lonely Cowboy
TTITLE4=Hound Advice
TTITLE5=One More Ride
TTITLE6=Forever Yours
TTITLE7=Yesterday's Gone
TTITLE8=Livin' By The Gun
TTITLE9=Man Over My Shoulder
EXTD=
EXTT0=
EXTT1=
EXTT2=
EXTT3=
EXTT4=
EXTT5=
EXTT6=
EXTT7=
EXTT8=
EXTT9=
PLAYORDER=
